<svg width="42" height="42" viewBox="0 0 42 42" fill="none" xmlns="http://www.w3.org/2000/svg">
<g clip-path="url(#clip0_1225_1140)">
<path d="M32.9524 20.5504C32.9524 29.0991 26.0293 36.0169 17.474 36.0169C8.91866 36.0169 1.99561 29.0991 1.99561 20.5504C1.99561 12.0017 8.91866 5.08398 17.474 5.08398C25.973 5.08398 32.9524 12.0017 32.9524 20.5504Z" fill="#A1A1AA"/>
<path d="M34.0213 30.4492V33.2051C34.0213 34.2174 34.4716 34.6673 35.0908 34.6673C35.7662 34.6673 36.2165 34.2174 36.2165 33.2051V30.4492H36.8356V33.1488C36.8356 34.5549 36.1039 35.1173 35.0908 35.1173C34.1339 35.1173 33.4585 34.6111 33.4585 33.1488V30.4492H34.0213Z" fill="#A1A1AA"/>
<path d="M37.7377 34.3295C38.0191 34.4982 38.4131 34.6107 38.8071 34.6107C39.4263 34.6107 39.764 34.2732 39.764 33.8233C39.764 33.3734 39.5388 33.1484 38.9197 32.9234C38.188 32.6422 37.6814 32.2485 37.6814 31.6299C37.6814 30.8988 38.3006 30.3926 39.2011 30.3926C39.6514 30.3926 39.9891 30.5051 40.2142 30.6175L39.9891 31.1237C39.8202 31.0112 39.5388 30.8988 39.1448 30.8988C38.5257 30.8988 38.3006 31.2924 38.3006 31.5736C38.3006 32.0236 38.582 32.1923 39.2011 32.4735C39.9891 32.7547 40.3831 33.1484 40.3831 33.8233C40.3831 34.5545 39.8765 35.1731 38.7508 35.1731C38.3006 35.1731 37.794 35.0606 37.5688 34.8919L37.7377 34.3295Z" fill="#A1A1AA"/>
<path d="M23.7762 24.319C23.2696 24.544 22.2002 24.8252 21.0182 24.8252C19.6674 24.8252 18.5417 24.4877 17.6411 23.6441C16.8531 22.913 16.4028 21.6757 16.4028 20.2696C16.4028 17.57 18.2602 15.6016 21.2996 15.6016C22.369 15.6016 23.157 15.8265 23.551 15.9953L23.2696 16.9514C22.763 16.7264 22.2002 16.5577 21.2996 16.5577C19.1045 16.5577 17.6974 17.9075 17.6974 20.1571C17.6974 22.463 19.0482 23.8128 21.1871 23.8128C21.9751 23.8128 22.4816 23.7004 22.763 23.5879V20.8883H20.9619V19.9322H23.945V24.319" fill="#171717"/>
<path d="M26.0323 23.3063C26.5388 23.6437 27.3268 23.8687 28.1148 23.8687C29.2968 23.8687 30.0285 23.25 30.0285 22.3502C30.0285 21.5065 29.5219 21.0004 28.34 20.5504C26.8765 19.988 25.976 19.2569 25.976 17.9633C25.976 16.5573 27.158 15.5449 28.9028 15.5449C29.8034 15.5449 30.4788 15.7699 30.8728 15.9949L30.5351 16.951C30.2536 16.7822 29.6345 16.501 28.8465 16.501C27.6082 16.501 27.158 17.2322 27.158 17.8508C27.158 18.6945 27.7208 19.0881 28.9591 19.5943C30.4788 20.213 31.2668 20.9441 31.2668 22.2377C31.2668 23.6437 30.2536 24.8248 28.1148 24.8248C27.2705 24.8248 26.3137 24.5436 25.8071 24.2624L26.0323 23.3063Z" fill="#171717"/>
<path d="M35.5969 17.1194H35.5406L34.0772 17.963L33.8521 17.0631L35.7095 16.0508H36.7226V24.712H35.5969V17.1194Z" fill="#A1A1AA"/>
<path d="M5.20138 20.4934C5.20138 13.632 10.7736 8.06405 17.6404 8.06405C17.3027 8.00781 16.9087 8.00781 16.571 8.00781C9.6479 8.00781 4.07568 13.5757 4.07568 20.4934C4.07568 27.4112 9.6479 32.9791 16.571 32.9791C17.0212 32.9791 17.4715 32.9791 17.9218 32.9228C17.8092 32.9228 17.7529 32.9228 17.6404 32.9228C10.7736 32.9228 5.20138 27.3549 5.20138 20.4934Z" fill="#171717"/>
<path d="M8.24604 20.6065C8.24604 14.4762 13.1991 9.52694 19.3342 9.52694C18.9965 9.52694 18.7151 9.4707 18.3773 9.4707C12.2423 9.4707 7.23291 14.4762 7.23291 20.6065C7.23291 26.7369 12.2423 31.7424 18.3773 31.7424C18.7713 31.7424 19.2216 31.7424 19.6156 31.6861C19.5593 31.6861 19.4468 31.6861 19.3905 31.6861C13.1991 31.6861 8.24604 26.7369 8.24604 20.6065Z" fill="#171717"/>
<path d="M11.1696 20.3826C11.1696 15.2084 15.3347 11.0465 20.5129 11.0465C20.2315 11.0465 19.9501 10.9902 19.6686 10.9902C14.4904 10.9902 10.269 15.2084 10.269 20.3826C10.269 25.5568 14.4904 29.7749 19.6686 29.7749C20.0064 29.7749 20.3441 29.7749 20.6818 29.7187C20.6255 29.7187 20.5692 29.7187 20.4566 29.7187C15.3347 29.7187 11.1696 25.5568 11.1696 20.3826Z" fill="#171717"/>
<path d="M13.7654 20.3809C13.7654 16.1628 17.1988 12.732 21.4202 12.732C21.195 12.732 20.9699 12.6758 20.7447 12.6758C16.4671 12.6758 13.0337 16.1065 13.0337 20.3809C13.0337 24.6552 16.4671 28.086 20.7447 28.086C21.0262 28.086 21.3076 28.086 21.589 28.0297C21.5327 28.0297 21.4764 28.0297 21.4202 28.0297C17.1988 28.086 13.7654 24.6552 13.7654 20.3809Z" fill="#171717"/>
</g>
<defs>
<clipPath id="clip0_1225_1140">
<rect width="40.5252" height="40.494" fill="white" transform="translate(0.930176 0.753906)"/>
</clipPath>
</defs>
</svg>
