<svg width="145" height="24" viewBox="0 0 145 24" fill="none" xmlns="http://www.w3.org/2000/svg">
<path d="M116.447 0.912012V9.78134H128.321C128.321 9.81185 128.311 0.909977 128.321 0.912012C128.311 0.909977 134.142 0.912012 134.203 0.912012C134.203 0.912012 134.223 23.0625 134.203 23.0879H128.321V13.3268C128.321 13.3573 116.447 13.3268 116.447 13.3268C116.457 13.3675 116.447 23.095 116.447 23.0879H110.575C110.575 23.0879 110.606 0.912012 110.575 0.912012H116.447Z" fill="#A1A1AA"/>
<path d="M60.6514 0.912016V4.68222H51.6561V23.0879H45.7848V4.68222H36.7896C36.7896 4.68222 36.7997 0.920149 36.7896 0.912016C36.7997 0.920149 60.6514 0.912016 60.6514 0.912016Z" fill="#A1A1AA"/>
<path d="M69.516 4.68296L65.4254 14.7724H73.6066L69.516 4.68296ZM83.4871 23.0886H76.9442C76.9543 23.0886 75.021 18.323 75.021 18.323H64.0008C64.0008 18.323 62.1081 23.0958 62.0878 23.0886C62.0878 23.0958 55.5347 23.0886 55.5347 23.0886L65.9138 0.912758C65.9138 0.922926 73.1181 0.912758 73.1181 0.912758L83.4871 23.0886Z" fill="#A1A1AA"/>
<path d="M138.864 23.0899H144.745V0.914062H138.864V23.0899Z" fill="#A1A1AA"/>
<path d="M6.40103 0.913965C6.40103 0.913965 6.39086 9.84837 6.40103 9.7833H18.276C18.276 9.8138 18.2556 0.91193 18.276 0.913965C18.2556 0.91193 24.0964 0.913965 24.1575 0.913965C24.1575 0.913965 24.1778 23.0644 24.1575 23.0898H18.276V13.3288C18.276 13.3593 6.40103 13.3288 6.40103 13.3288C6.40103 13.3695 6.39086 23.097 6.40103 23.0898H0.519531C0.519531 23.0898 0.550058 0.913965 0.519531 0.913965H6.40103Z" fill="#A1A1AA"/>
<path d="M28.8135 23.0899H34.6848V0.914062H28.8135V23.0899Z" fill="#A1A1AA"/>
<path d="M83.2937 16.9524C82.7747 15.4568 82.5 13.8808 82.5 12.2214C82.5 9.89195 82.907 7.63572 84.0263 5.75672C85.1762 3.8279 86.9467 2.33934 89.0836 1.54829C91.1086 0.78367 93.2963 0.363743 95.596 0.363743C98.2315 0.363743 100.725 0.940254 103.014 1.92449C105.131 2.83654 106.728 4.74299 107.206 7.04802C107.308 7.50354 107.379 7.98041 107.41 8.45626H101.243C101.223 7.85839 101.132 7.2768 100.928 6.75113C100.46 5.52489 99.4322 4.56607 98.1704 4.18783C97.3564 3.93262 96.4813 3.80044 95.596 3.80044C94.5784 3.80044 93.5914 3.97228 92.6858 4.29968C91.1798 4.8284 90.0096 6.04955 89.4703 7.5554C88.9513 9.00939 88.6664 10.5844 88.6664 12.2214C88.6664 13.5798 88.8903 14.8863 89.2261 16.1156C89.6738 17.7293 90.8949 19.0297 92.4416 19.6225C93.4184 19.9885 94.4869 20.2031 95.596 20.2031C96.5423 20.2031 97.448 20.0607 98.3129 19.7842C99.4627 19.4141 100.399 18.5671 100.887 17.4781C101.203 16.7552 101.366 15.954 101.366 15.0978H107.563C107.522 15.8228 107.42 16.5366 107.267 17.2036C106.728 19.3988 105.192 21.2432 103.156 22.0963C100.826 23.0694 98.2824 23.6367 95.596 23.6367C93.5202 23.6367 91.5054 23.3114 89.6331 22.7216C86.7636 21.8208 84.2807 19.7567 83.2937 16.9524Z" fill="#A1A1AA"/>
</svg>
