<svg width="126" height="42" viewBox="0 0 126 42" fill="none" xmlns="http://www.w3.org/2000/svg">
<path d="M26.9575 34.8563L30.2095 37.468L33.6587 34.5338L32.278 33.2438V12.625C32.278 12.625 31.9581 12.6832 31.9528 12.7202C31.7715 13.7352 29.4471 16.1566 27.9278 16.5637V34.0739C27.9278 34.0739 27.3094 34.5338 26.9575 34.8563Z" fill="#A1A1AA"/>
<path d="M34.4191 23.6379H34.5897L36.5782 25.3244L36.6901 35.9774C36.6901 35.9774 37.2232 41.9304 31.1831 40.6352L31.2257 41.1639C32.1053 41.5963 33.0812 41.8 34.0619 41.756C37.4738 41.5498 40.3952 39.9267 40.6351 36.8762C41.0456 31.5893 40.827 23.4423 40.827 23.4423L37.1539 20.7988L32.26 24.6847V25.3825C32.26 25.3825 34.467 23.5903 34.4191 23.6379Z" fill="#A1A1AA"/>
<path d="M23.866 25.7268C23.8481 25.7629 23.8321 25.8 23.818 25.8378C23.124 27.7531 21.952 29.4628 20.4115 30.8074C18.4363 32.5037 15.8839 33.3903 13.2731 33.287C8.37383 33.0491 5.13252 29.7765 5.13252 24.976C5.18932 23.5063 5.54986 22.0637 6.19177 20.7378C6.83369 19.4119 7.7433 18.2308 8.86428 17.2678C8.50932 17.2068 8.14513 17.2249 7.79806 17.3206C3.95967 19.0336 1.3208 22.6075 1.3208 26.7788C1.3208 32.5944 6.50795 37.3156 12.9053 37.3156C17.5966 37.3156 21.6429 34.7726 23.4608 31.1193C24.2019 29.2108 23.9033 26.0968 23.866 25.7268Z" fill="#A1A1AA"/>
<path d="M20.6085 17.9336H20.1616V31.4098H20.6085V17.9336Z" fill="#A1A1AA"/>
<path d="M12.6587 16.1094L12.536 31.1611L9.98779 32.7471L10.4089 33.2071L17.2327 28.8772V20.5239C17.2327 20.5239 17.1848 17.8805 17.4726 17.8276" fill="#A1A1AA"/>
<path d="M10.8747 16.5265C12.4207 16.9601 12.8472 17.383 14.1586 17.5839C16.2525 17.8587 18.3641 17.9789 20.476 17.9434C25.0981 17.9434 26.9959 13.5606 26.9959 13.5606C25.4659 14.195 20.1614 14.655 16.6269 13.9042C14.1053 13.3755 13.0231 13.2064 11.2958 12.8469C0.953507 10.7903 0.745605 18.9268 0.745605 18.9268C1.81182 18.4879 3.81099 14.5387 10.8747 16.5265Z" fill="#A1A1AA"/>
<path d="M19.6899 24.2565L20.351 23.5273L21.0494 24.2776L20.431 25.0702L19.6899 24.2565Z" fill="#A1A1AA"/>
<path d="M56.6598 31.5422L56.308 31.1879L52.2297 34.4446L48.7272 31.9334L48.6952 30.49L55.599 25.2032L52.7575 20.334C51.2878 21.2033 49.7635 21.9785 48.194 22.6549C47.4104 22.9404 44.409 24.1247 44.409 24.1247L44.4623 33.2128L42.2339 34.9628L42.5164 35.3804L44.5263 33.8472L49.4042 37.3577L56.6598 31.5422ZM48.6632 23.0514L49.788 22.5227L52.4269 27.0166L48.6472 29.9508L48.6632 23.0514Z" fill="#A1A1AA"/>
<path d="M90.6126 25.0277L89.9835 25.6674L89.605 25.3238L90.6285 24.2981L91.8547 23.0557L92.9956 21.8926C94.8881 23.2672 96.6473 24.4831 96.6473 24.4831V32.7095L99.1849 34.5599C99.1849 34.5599 100.934 32.8205 100.992 32.7201C100.992 31.4459 100.992 26.2701 100.992 26.2701L99.2222 24.9114L98.4865 25.5511L98.1294 25.2233L101.472 21.8926L104.895 24.536L106.003 23.4416L106.329 23.8276L105.23 24.9431V34.0101L106.121 34.5863L107.15 33.5871L107.491 33.9308L103.716 37.7109L101.008 35.7706V33.4602L96.8979 37.6369L92.5424 34.5863L91.4122 35.6437L91.0497 35.2948L92.4304 33.9202V26.2807L90.6445 25.0065" fill="#A1A1AA"/>
<path d="M90.6126 25.0277L89.9835 25.6674L89.605 25.3238L90.6285 24.2981L91.8547 23.0557L92.9956 21.8926C94.8881 23.2672 96.6473 24.4831 96.6473 24.4831V32.7095L99.1849 34.5599C99.1849 34.5599 100.934 32.8205 100.992 32.7201C100.992 31.4459 100.992 26.2701 100.992 26.2701L99.2222 24.9114L98.4865 25.5511L98.1294 25.2233L101.472 21.8926L104.895 24.536L106.003 23.4416L106.329 23.8276L105.23 24.9431V34.0101L106.121 34.5863L107.15 33.5871L107.491 33.9308L103.716 37.7109L101.008 35.7706V33.4602L96.8979 37.6369L92.5424 34.5863L91.4122 35.6437L91.0497 35.2948L92.4304 33.9202V26.2807L90.6445 25.0065" fill="#A1A1AA"/>
<path d="M115.169 24.3082V26.2485L119.119 21.7494L123.096 24.5567L124.04 23.5786L124.402 23.9117L124.253 24.0016L123.288 25.1118V33.5232L124.578 34.5224L125.437 33.555L125.794 33.9092L122.435 37.6945L119.333 35.2467V26.7402L116.891 25.0484L115.153 27.0309V34.5436L116.043 35.5111C116.006 35.5111 116.043 35.5692 116.006 35.5904C114.905 36.2318 113.862 36.9658 112.887 37.7845C112.887 37.7845 111.107 36.2618 110.222 35.638L110.936 34.7075V26.074L109.262 24.8739L108.644 25.5136L108.276 25.1858L110.104 23.1398L111.395 21.6172L115.169 24.3082Z" fill="#A1A1AA"/>
<path d="M85.2476 24.2879C84.6661 23.9911 84.0502 23.7656 83.4137 23.6165C83.5949 23.3997 84.5652 22.2472 84.8318 21.9405L85.4182 21.3801C85.4102 21.4469 85.4102 21.5143 85.4182 21.581C85.4159 21.7364 85.4482 21.8904 85.5127 22.032C85.5773 22.1735 85.6725 22.2993 85.7916 22.4002C85.9107 22.5012 86.0508 22.5749 86.2018 22.6161C86.3529 22.6572 86.5113 22.6648 86.6657 22.6384C86.9988 22.5536 87.292 22.3573 87.496 22.0828C87.7 21.8082 87.8022 21.4723 87.7852 21.1317C87.7875 20.9763 87.7552 20.8223 87.6907 20.6807C87.6261 20.5392 87.531 20.4134 87.4119 20.3125C87.2928 20.2115 87.1526 20.1378 87.0016 20.0967C86.8505 20.0555 86.6922 20.0479 86.5378 20.0743H86.4791L86.3938 20.106L86.2872 20.1483C85.4395 20.5078 84.6878 21.4224 84.0907 22.189C83.5576 22.8393 83.0779 23.3997 82.9872 23.4949C81.6705 23.2305 79.7885 23.0191 78.4238 22.8869C80.9347 20.0637 83.0832 17.7533 86.1273 14.375L85.834 14.0578C85.3009 14.6605 85.2049 14.7292 84.4799 15.4853C83.043 14.6298 81.4744 14.0137 79.8365 13.6613C78.0182 13.2861 76.1489 13.22 74.3082 13.4657C72.6037 13.7902 71.0353 14.6111 69.8034 15.8236C68.9022 16.6657 68.1996 17.6947 67.7456 18.8372C67.3326 19.8044 67.2158 20.8709 67.4098 21.9035C67.5644 22.6916 67.9331 23.4228 68.476 24.0183C68.6839 24.3196 69.8194 25.5726 74.5854 26.4767C74.0523 27.0635 73.6791 27.4918 73.0874 28.0998C72.815 28.421 72.5114 28.7149 72.1811 28.9774C72.1925 28.9374 72.2014 28.8968 72.2077 28.8558C72.2444 28.7021 72.2459 28.5422 72.2121 28.3879C72.1783 28.2336 72.11 28.0887 72.0123 27.9639C71.9147 27.8392 71.7901 27.7377 71.6477 27.667C71.5053 27.5963 71.3487 27.5581 71.1895 27.5552C70.8462 27.5797 70.5227 27.7236 70.2759 27.9615C70.0291 28.1994 69.875 28.5162 69.8407 28.8558C69.805 29.0091 69.8042 29.1684 69.8385 29.3221C69.8727 29.4757 69.9411 29.6199 70.0387 29.744C70.1363 29.8681 70.2605 29.9691 70.4024 30.0395C70.5444 30.1099 70.7003 30.148 70.859 30.1511C70.96 30.1504 71.0604 30.1362 71.1575 30.1088H71.2321C71.8186 29.8973 72.2984 29.6488 73.6471 28.1315C73.9297 27.8196 74.6068 27.1005 75.0919 26.5877C75.8489 26.7199 76.6912 26.8468 77.6348 26.9578C78.5784 27.0688 79.3248 27.1904 79.9965 27.3332C78.9303 28.676 78.0186 29.8233 76.7019 31.3882C73.1597 30.9895 69.5786 31.6563 66.4235 33.302C64.5523 34.3171 62.6384 35.7393 61.9827 37.9968C61.7774 38.6401 61.7772 39.3307 61.9824 39.9741C62.1875 40.6176 62.5879 41.1825 63.1289 41.5918C64.4563 42.48 66.1623 41.7399 67.6284 41.0632C69.7981 40.0058 71.4561 38.3933 73.0127 36.7121C73.6152 36.0565 74.82 34.5973 74.868 34.5233C75.7984 34.7504 76.7024 35.0729 77.5655 35.4855C78.4903 35.9395 79.3566 36.5021 80.1457 37.1614C80.1937 37.1985 81.1373 38.1342 81.116 38.1607L81.6224 37.7166C84.5972 35.2476 87.4867 32.324 87.9665 28.565C88.169 26.482 86.5964 24.9118 85.3009 24.3355L85.2476 24.2879ZM69.8407 21.6075C69.0464 21.1316 68.3907 20.5501 68.4387 19.6461C68.4535 18.9806 68.6536 18.3321 69.0167 17.7724C69.3799 17.2126 69.892 16.7632 70.4965 16.4739C73.2527 15.1945 76.0141 15.8871 78.1679 16.7858C79.3535 17.3087 80.4706 17.9726 81.4945 18.7631C79.8525 20.6717 79.4474 21.1264 77.8534 22.9239C74.3988 22.686 70.6351 22.2472 69.8567 21.6233L69.8407 21.6075ZM73.6311 35.2635C72.1825 37.0741 70.4229 38.6169 68.4333 39.8208C67.3119 40.6293 65.96 41.0626 64.5736 41.0579C64.1673 41.0627 63.7668 40.9624 63.4114 40.7671C63.058 40.4902 62.8085 40.1036 62.7032 39.6693C62.5978 39.235 62.6426 38.7782 62.8304 38.3722C63.79 36.157 66.9246 34.6238 70.2939 34.185C71.6386 34.0029 73.0064 34.0855 74.3189 34.4281L73.6258 35.2635H73.6311ZM77.2456 31.5627C78.3545 30.1193 79.4154 28.8558 80.4763 27.4971L81.052 27.6345C81.2976 27.6975 81.5396 27.7733 81.7771 27.8618C82.6693 28.1696 83.5075 28.6137 84.2614 29.1783C84.6593 29.4535 84.9898 29.8138 85.2286 30.2325C85.4674 30.6513 85.6083 31.1178 85.6411 31.5978C85.6738 32.0778 85.5975 32.559 85.4178 33.0058C85.238 33.4527 84.9595 33.8538 84.6026 34.1797C84.6026 34.1797 84.4906 34.3013 84.4053 34.3806L84.2667 34.4704C82.1359 33.0639 79.7523 32.0767 77.2456 31.5627Z" fill="#A1A1AA"/>
<path d="M47.9509 6.72522L43.7819 7.64513V7.53409C44.0393 7.47108 44.2807 7.35586 44.491 7.19572C44.5571 7.07648 44.5979 6.94504 44.6107 6.80954C44.6236 6.67403 44.6082 6.53736 44.5656 6.40799C44.5176 6.06963 44.4057 5.49335 44.2617 4.85364C44.1178 4.21393 44.0591 3.92315 43.8832 3.23057C43.7553 2.70188 43.6913 2.55385 43.4781 2.47455C43.2437 2.43137 43.0034 2.43137 42.769 2.47455V2.35825L45.9677 1.66567C46.5008 1.54408 46.6714 1.50178 46.73 1.33789H46.8153L47.0232 2.58559H46.922C46.922 2.58559 46.8047 2.15206 46.5914 2.0569C46.3348 1.98794 46.0643 1.98794 45.8077 2.0569C45.6212 2.08862 45.3653 2.14149 45.1414 2.18907L44.6082 2.31066C44.7309 2.9768 44.8908 3.75397 45.0294 4.3831L46.3408 4.0712C46.4792 4.05023 46.6036 3.97616 46.6874 3.865C46.7632 3.69961 46.7891 3.51599 46.762 3.33631H46.858L47.2205 4.95409H47.1245C47.037 4.73422 46.9024 4.53582 46.73 4.37255L45.1307 4.73206C45.1307 4.73206 45.3173 5.60968 45.4719 6.15952C45.6265 6.70935 45.7704 6.92083 46.5381 6.75165C47.0383 6.6686 47.4942 6.41639 47.8282 6.0379C47.9372 5.8512 48.0129 5.64736 48.0521 5.43522H48.1481L48.0148 6.72522" fill="#A1A1AA"/>
<path d="M39.793 3.34081C39.6331 3.47827 39.6224 3.66333 39.7557 4.18144C40.0969 5.445 40.3741 6.36491 40.8219 7.83466C40.8752 8.02498 41.0245 8.45321 41.0245 8.45321L40.8433 8.54311L35.752 5.48728C35.752 5.48728 36.3278 7.41172 36.589 8.24176C36.8502 9.0718 36.9515 9.15107 37.1541 9.17222C37.3878 9.1899 37.6227 9.17569 37.8525 9.12995L37.8898 9.24095L35.5815 9.9071L35.5495 9.7961C35.7695 9.71153 35.976 9.59577 36.1625 9.45244C36.3118 9.32027 36.3012 9.04007 36.1625 8.46909C35.8747 7.31126 35.2563 5.16479 35.2563 5.16479C35.0658 5.03864 34.8598 4.93735 34.6432 4.86344C34.4246 4.80794 34.1954 4.80794 33.9768 4.86344L33.9448 4.7524L36.2798 4.0757L36.3118 4.1867C36.3118 4.1867 35.9173 4.34004 35.896 4.57267C37.5913 5.63004 40.2408 7.17909 40.2408 7.17909C40.2408 7.17909 39.7504 5.59304 39.3612 4.44579C39.132 3.77435 39.0147 3.64217 38.7534 3.63688C38.5423 3.62145 38.3302 3.62145 38.119 3.63688V3.53113L40.3688 2.88086L40.4008 2.9866C40.2118 3.07679 40.0331 3.18667 39.8677 3.31439" fill="#A1A1AA"/>
<path d="M57.5999 0.392139C57.3867 0.534885 57.1681 0.762228 56.8962 1.65571C56.3631 3.34222 55.7074 5.79534 55.7074 5.79534L55.4941 5.83235C55.4941 5.83235 55.3662 5.55215 55.2755 5.33539C54.6465 3.97137 53.6176 2.00463 53.6176 2.00463C53.6176 2.00463 52.9779 4.08239 52.4181 6.14955L52.2049 6.18657L51.9969 5.70018C51.4318 4.42605 50.8614 3.22592 50.275 1.99937C50.1697 1.70096 49.9647 1.44722 49.6939 1.28033C49.471 1.18157 49.2289 1.13284 48.9849 1.13761V1.02657L51.5918 0.746383V0.862679C51.3892 0.920835 50.9894 0.98956 51.0267 1.35435C51.0593 1.56885 51.124 1.77732 51.2186 1.97291C51.4798 2.57033 51.8583 3.3898 52.4607 4.65865C52.8179 3.45324 53.367 1.48653 53.367 1.48653C53.2701 1.23393 53.0794 1.02774 52.8339 0.910275C52.6483 0.819962 52.4436 0.774662 52.2369 0.778103V0.661775L54.9024 0.381588V0.497883C54.7265 0.540178 54.1347 0.640621 54.1827 1.08472C54.2153 1.29483 54.2819 1.49835 54.3799 1.68743C54.8277 2.62849 55.2383 3.40038 55.734 4.33087C55.734 4.33087 56.1605 2.79239 56.4164 1.68743C56.5024 1.37584 56.5419 1.05345 56.5337 0.730507C56.4964 0.371 56.1019 0.408005 55.8406 0.397431V0.281136L58.2077 0.0273438V0.143672C57.9942 0.184253 57.7889 0.259255 57.5999 0.365711" fill="#A1A1AA"/>
<path d="M68.6915 0.565699C68.4274 0.695973 68.2056 0.897541 68.0518 1.14724C67.5187 1.88212 66.6977 3.19326 66.6977 3.19326C66.6596 3.44204 66.6347 3.69265 66.6231 3.94402C66.6231 4.1925 66.5964 4.44627 66.5911 4.63131C66.5911 4.96967 66.5911 5.22342 66.831 5.37674C67.0471 5.46886 67.2749 5.53114 67.508 5.5618V5.6781L64.6613 5.48778V5.37674C64.8966 5.37141 65.1307 5.34129 65.3596 5.28687C65.5782 5.21286 65.6528 5.00667 65.7008 4.589C65.7488 4.17134 65.7968 3.42588 65.7968 3.42588C65.7968 3.42588 65.0611 1.81339 64.56 0.888191C64.4505 0.655305 64.2903 0.449434 64.0908 0.28548C63.951 0.199119 63.7951 0.141609 63.6323 0.116328V0L65.9833 0.153308V0.269636C65.8287 0.269636 65.4502 0.269645 65.4502 0.576283C65.4574 0.761706 65.5085 0.942847 65.5995 1.10497C65.7328 1.42747 66.4951 2.90778 66.4951 2.90778C66.8527 2.38265 67.1819 1.83909 67.4814 1.27941C67.5766 1.11592 67.6416 0.936879 67.6733 0.750727C67.6733 0.380646 67.3001 0.354218 67.1402 0.327784V0.211488L69.2033 0.34366V0.465248C69.0426 0.465726 68.8835 0.496208 68.7342 0.555115" fill="#A1A1AA"/>
<path d="M72.8984 6.3751C72.5205 6.31505 72.1584 6.18085 71.8334 5.98036C71.5084 5.77987 71.2269 5.51712 71.0055 5.20747C70.7841 4.89782 70.6272 4.54751 70.544 4.177C70.4608 3.8065 70.4529 3.42324 70.5208 3.04967C70.5982 2.66961 70.7519 2.30884 70.9728 1.98888C71.1936 1.66891 71.4771 1.39626 71.8063 1.18713C72.1356 0.978005 72.5039 0.836675 72.8893 0.771547C73.2747 0.706419 73.6694 0.718844 74.05 0.808043C74.4304 0.859415 74.7963 0.987117 75.1253 1.18339C75.4542 1.37966 75.7394 1.64038 75.9634 1.94961C76.1874 2.25883 76.3456 2.6101 76.4281 2.98194C76.5107 3.35378 76.5159 3.73841 76.4436 4.11234C76.3661 4.49458 76.2119 4.85748 75.9904 5.17956C75.7688 5.50163 75.4842 5.77632 75.1536 5.98733C74.823 6.19835 74.4531 6.34141 74.0657 6.40802C73.6783 6.47463 73.2814 6.46343 72.8984 6.3751ZM73.8687 1.08823C72.6372 0.855608 71.8322 1.97114 71.603 3.20298C71.3044 4.74675 71.9601 5.92042 73.069 6.1319C74.3058 6.36452 75.1055 5.3653 75.3721 4.01715C75.6386 2.66899 75.1322 1.37373 73.8687 1.13053" fill="#A1A1AA"/>
<path d="M83.3314 8.15702C82.9061 8.09426 82.5045 7.92285 82.1661 7.6596C81.8278 7.39636 81.5643 7.05035 81.4016 6.65557C81.2138 6.184 81.09 5.68973 81.0337 5.1858C80.7831 5.1858 80.1221 5.13824 80.1221 5.13824C80.1221 5.13824 79.9782 5.84138 79.9035 6.34363C79.8662 6.62383 79.7649 7.06264 80.1061 7.23182C80.282 7.31112 80.6019 7.42214 80.6019 7.42214V7.53318L77.979 7.00449V6.89345C78.1989 6.93375 78.4251 6.92289 78.6401 6.86173C78.9013 6.73485 78.9599 6.43878 79.0292 6.20087C79.0985 5.96296 79.2638 5.24924 79.3971 4.61481C79.509 4.08612 79.637 3.44113 79.7169 2.96531C79.7969 2.48949 79.8076 2.26745 79.6583 2.10884C79.4916 1.97019 79.2944 1.8724 79.0825 1.82336V1.70703C79.0825 1.70703 80.4527 1.97139 81.1404 2.11413C82.3932 2.37847 83.2728 3.02347 83.0862 3.96454C82.9993 4.25163 82.8272 4.50609 82.5923 4.69471C82.3574 4.88333 82.0706 4.99736 81.7694 5.02191C81.8983 5.64268 82.1269 6.2389 82.4465 6.78774C82.6539 7.13731 82.9167 7.45146 83.2248 7.7182C83.499 7.92229 83.8077 8.07628 84.1364 8.1729V8.27864C83.9392 8.27864 83.6033 8.20989 83.3368 8.15702H83.3314ZM80.7139 2.2939L80.1807 4.68884L81.0124 4.95847C81.2722 4.89892 81.5098 4.76822 81.6983 4.58128C81.8868 4.39434 82.0186 4.15868 82.0787 3.9011C82.2919 2.90716 81.263 2.44192 80.6712 2.31503" fill="#A1A1AA"/>
<path d="M85.5776 8.77564L85.6149 8.66464C85.8311 8.70525 86.0507 8.72648 86.2707 8.72808C86.4466 8.72808 86.6066 8.60648 86.8038 8.06722C87.0011 7.52796 87.1663 7.07857 87.3796 6.43885C87.5928 5.79914 87.7314 5.41321 87.9127 4.89509C87.998 4.63075 88.0939 4.3664 87.9127 4.16021C87.7585 4.00512 87.578 3.87809 87.3796 3.78486L87.4168 3.67383L89.8158 4.4827L89.7785 4.59374C89.5966 4.53429 89.4045 4.51094 89.2134 4.52501C88.9789 4.5673 88.8563 4.84224 88.7337 5.17002C88.5364 5.69871 88.3978 6.08465 88.2006 6.69265C88.0033 7.30064 87.8434 7.75002 87.6675 8.37387C87.5288 8.82325 87.5182 9.02415 87.6675 9.19862C87.83 9.33192 88.0092 9.44387 88.2006 9.53169L88.1632 9.6427L85.5776 8.77564ZM88.7763 9.83302L88.8136 9.72201C88.8136 9.72201 89.1921 9.83303 89.3467 9.685C89.3319 9.5027 89.2869 9.32406 89.2134 9.15631C88.7976 8.01435 88.3178 6.96225 88.3178 6.96225C88.9576 6.58159 89.5333 6.21152 90.1251 5.77799C90.4663 5.52422 90.6315 5.3709 90.6901 5.207C90.7488 5.04311 90.5142 4.83165 90.285 4.72591L90.3223 4.61488L92.5987 5.37619L92.5614 5.48722C92.3641 5.44493 91.8044 5.2176 90.7222 5.82559C90.317 6.05821 89.4694 6.58689 89.1868 6.80365C89.5493 7.79758 89.8852 8.6382 90.1304 9.22505C90.2561 9.60925 90.4738 9.95753 90.7648 10.2401C90.8961 10.3497 91.0436 10.4389 91.202 10.5045L91.1646 10.6102L88.7763 9.83302Z" fill="#A1A1AA"/>
</svg>
