<svg width="98" height="38" viewBox="0 0 98 38" fill="none" xmlns="http://www.w3.org/2000/svg">
<g clip-path="url(#clip0_1225_1201)">
<path d="M1.21904 33.5691C1.50734 33.281 1.91702 33.1445 2.3267 33.1445C3.14608 33.1445 3.47989 33.5388 3.47989 34.312V35.4946C3.47989 35.6614 3.49506 35.8282 3.52541 35.9798H3.08538C3.05503 35.8585 3.05503 35.6917 3.05503 35.5704H3.03986C2.85778 35.8585 2.55431 36.0556 2.12945 36.0556C1.56803 36.0556 1.09766 35.7675 1.09766 35.2369C1.09766 34.3271 2.1598 34.2665 2.8426 34.2665H3.02469V34.1907C3.02469 33.7814 2.76673 33.5842 2.34188 33.5842C2.05358 33.5842 1.73494 33.6904 1.52251 33.8875L1.21904 33.5691ZM2.55431 34.6456C1.96254 34.6456 1.58321 34.8123 1.58321 35.1762C1.58321 35.5249 1.84116 35.6614 2.19015 35.6614C2.72122 35.6614 2.99434 35.2823 3.00951 34.8275V34.6456H2.55431Z" fill="#A1A1AA"/>
<path d="M6.13076 35.252C6.31285 35.4795 6.5101 35.6311 6.84391 35.6311C7.13221 35.6311 7.45085 35.5098 7.45085 35.2066C7.45085 34.9185 7.16256 34.8275 6.85909 34.7669C6.32801 34.6456 5.88798 34.5394 5.88798 33.9633C5.88798 33.4326 6.40388 33.1445 6.91978 33.1445C7.31429 33.1445 7.67844 33.2962 7.86055 33.6449L7.4812 33.9026C7.35981 33.7055 7.16256 33.5691 6.88943 33.5691C6.63149 33.5691 6.34319 33.6904 6.34319 33.9481C6.34319 34.1756 6.67701 34.2817 7.04117 34.3575C7.52672 34.4484 7.95158 34.6304 7.95158 35.1914C7.95158 35.813 7.39016 36.0556 6.84391 36.0556C6.37354 36.0556 6.03972 35.9343 5.7666 35.5401L6.13076 35.252Z" fill="#A1A1AA"/>
<path d="M11.0679 35.3282C11.0679 35.586 11.0982 35.7983 11.0982 35.9802H10.6582C10.6582 35.8286 10.643 35.677 10.643 35.5253H10.6278C10.5064 35.7983 10.1574 36.056 9.70223 36.056C8.97389 36.056 8.65527 35.6011 8.65527 34.934V33.2207H9.11046V34.8885C9.11046 35.3434 9.3077 35.6466 9.74777 35.6466C10.3395 35.6466 10.6126 35.2221 10.6126 34.5853V33.2359H11.0679V35.3282Z" fill="#A1A1AA"/>
<path d="M11.9795 31.5078H12.4347V33.6153H12.4499C12.7078 33.3272 13.0416 33.1453 13.4362 33.1453C14.301 33.1453 14.8928 33.7669 14.8928 34.6008C14.8928 35.4347 14.2859 36.0564 13.512 36.0564C13.0113 36.0564 12.6168 35.8138 12.4499 35.4953H12.4347V35.9805H11.9795V31.5078ZM13.421 35.6166C14.0127 35.6166 14.4073 35.1618 14.4073 34.5856C14.4073 34.0095 14.0279 33.5547 13.421 33.5547C12.8292 33.5547 12.4347 34.0095 12.4347 34.5856C12.4347 35.1769 12.8292 35.6166 13.421 35.6166Z" fill="#A1A1AA"/>
<path d="M15.7206 35.252C15.9027 35.4795 16.1 35.6311 16.4338 35.6311C16.7221 35.6311 17.0407 35.5098 17.0407 35.2066C17.0407 34.9185 16.7525 34.8275 16.4489 34.7669C15.9179 34.6456 15.4778 34.5394 15.4778 33.9633C15.4778 33.4326 15.9938 33.1445 16.5097 33.1445C16.9041 33.1445 17.2683 33.2962 17.4504 33.6449L17.0711 33.9026C16.9497 33.7055 16.7525 33.5691 16.4793 33.5691C16.2214 33.5691 15.9331 33.6904 15.9331 33.9481C15.9331 34.1756 16.2669 34.2817 16.6311 34.3575C17.1166 34.4484 17.5414 34.6304 17.5414 35.1914C17.5414 35.813 16.98 36.0556 16.4338 36.0556C15.9634 36.0556 15.6296 35.9343 15.3564 35.5401L15.7206 35.252Z" fill="#A1A1AA"/>
<path d="M18.5174 31.7949C18.6995 31.7949 18.8512 31.9466 18.8512 32.1285C18.8512 32.3256 18.7147 32.4621 18.5174 32.4621C18.3202 32.4621 18.1836 32.3256 18.1836 32.1285C18.1836 31.9466 18.3353 31.7949 18.5174 31.7949ZM18.2898 33.205H18.745V35.9644H18.2898V33.205Z" fill="#A1A1AA"/>
<path d="M22.0206 35.4797C21.8385 35.7981 21.444 36.0407 20.9433 36.0407C20.1694 36.0407 19.5625 35.4191 19.5625 34.5852C19.5625 33.7513 20.1543 33.1296 21.0192 33.1296C21.4289 33.1296 21.7627 33.3116 22.0055 33.5996H22.0206V31.4922H22.4758V35.9649H22.0206V35.4797ZM21.0495 33.5693C20.4578 33.5693 20.0632 34.0242 20.0632 34.6004C20.0632 35.1765 20.4426 35.6313 21.0495 35.6313C21.6565 35.6313 22.0358 35.1765 22.0358 34.6004C22.0206 34.009 21.6413 33.5693 21.0495 33.5693Z" fill="#A1A1AA"/>
<path d="M23.6619 31.7949C23.844 31.7949 23.9957 31.9466 23.9957 32.1285C23.9957 32.3256 23.8592 32.4621 23.6619 32.4621C23.4646 32.4621 23.3281 32.3256 23.3281 32.1285C23.3281 31.9466 23.4798 31.7949 23.6619 31.7949ZM23.4343 33.205H23.8895V35.9644H23.4343V33.205Z" fill="#A1A1AA"/>
<path d="M24.8284 33.5691C25.1167 33.281 25.5264 33.1445 25.9361 33.1445C26.7555 33.1445 27.0893 33.5388 27.0893 34.312V35.4946C27.0893 35.6614 27.1044 35.8282 27.1348 35.9798H26.6947C26.6644 35.8585 26.6644 35.6917 26.6644 35.5704H26.6493C26.4671 35.8585 26.1637 36.0556 25.7388 36.0556C25.1774 36.0556 24.707 35.7675 24.707 35.2369C24.707 34.3271 25.7692 34.2665 26.452 34.2665H26.6341V34.1907C26.6341 33.7814 26.3761 33.5842 25.9513 33.5842C25.663 33.5842 25.3443 33.6904 25.1319 33.8875L24.8284 33.5691ZM26.1637 34.6456C25.5719 34.6456 25.1926 34.8123 25.1926 35.1762C25.1926 35.5249 25.4505 35.6614 25.7995 35.6614C26.3306 35.6614 26.6037 35.2823 26.6189 34.8275V34.6456H26.1637Z" fill="#A1A1AA"/>
<path d="M27.9942 33.8723C27.9942 33.6145 27.9639 33.4023 27.9639 33.2204H28.4039C28.4039 33.372 28.4191 33.5236 28.4191 33.6752H28.4342C28.5556 33.4023 28.9046 33.1445 29.3598 33.1445C29.4205 33.1445 29.4812 33.1445 29.5419 33.1749L29.5116 33.6449C29.4356 33.6145 29.3446 33.6145 29.2688 33.6145C28.7073 33.6145 28.4645 34.0088 28.4645 34.6456V35.9949H28.0093V33.8723H27.9942Z" fill="#A1A1AA"/>
<path d="M31.1514 36.6164C30.9692 37.0865 30.7872 37.4048 30.2258 37.4048C30.0892 37.4048 29.9375 37.3897 29.8161 37.329L29.8768 36.9196C29.9678 36.95 30.074 36.9652 30.1954 36.9652C30.4989 36.9652 30.6051 36.7832 30.7113 36.5103L30.8934 35.9948L29.7402 33.2051H30.2713L31.1362 35.3731H31.1514L31.9707 33.2051H32.4715L31.1514 36.6164Z" fill="#A1A1AA"/>
<path d="M36.0744 33.1445C36.924 33.1445 37.5462 33.7358 37.5462 34.6001C37.5462 35.4643 36.924 36.0556 36.0744 36.0556C35.2247 36.0556 34.6025 35.4643 34.6025 34.6001C34.6025 33.7358 35.2247 33.1445 36.0744 33.1445ZM36.0744 35.6159C36.6661 35.6159 37.0606 35.161 37.0606 34.5849C37.0606 34.0088 36.6813 33.5539 36.0744 33.5539C35.4674 33.5539 35.0881 34.0088 35.0881 34.5849C35.0881 35.1762 35.4826 35.6159 36.0744 35.6159Z" fill="#A1A1AA"/>
<path d="M38.5542 33.5998H37.9473V33.2056H38.5542V32.584C38.5542 31.9168 38.797 31.4316 39.5404 31.4316C39.6618 31.4316 39.8136 31.462 39.8894 31.5075L39.8288 31.9168C39.7226 31.8865 39.6163 31.8562 39.5101 31.8562C39.0246 31.8562 39.0094 32.2049 39.0094 32.6901V33.2056H39.677V33.5998H39.0094V35.9802H38.5542V33.5998Z" fill="#A1A1AA"/>
<path d="M44.9646 32.6598C44.7219 32.3263 44.3274 32.1444 43.9177 32.1444C42.9769 32.1444 42.3244 32.9631 42.3244 33.8879C42.3244 34.8583 42.9769 35.6315 43.9177 35.6315C44.4336 35.6315 44.8281 35.4193 45.1316 35.0402L45.5109 35.3587C45.1316 35.8589 44.6005 36.0864 43.9329 36.0864C42.7342 36.0864 41.8086 35.1615 41.8086 33.8879C41.8086 32.6598 42.6886 31.6895 43.9329 31.6895C44.4943 31.6895 45.0557 31.8866 45.4047 32.3414L44.9646 32.6598Z" fill="#A1A1AA"/>
<path d="M46.1312 33.5691C46.4195 33.281 46.8291 33.1445 47.2388 33.1445C48.0582 33.1445 48.392 33.5388 48.392 34.312V35.4946C48.392 35.6614 48.4072 35.8282 48.4375 35.9798H47.9975C47.9672 35.8585 47.9672 35.6917 47.9672 35.5704H47.952C47.7699 35.8585 47.4664 36.0556 47.0415 36.0556C46.4801 36.0556 46.0098 35.7675 46.0098 35.2369C46.0098 34.3271 47.0719 34.2665 47.7547 34.2665H47.9368V34.1907C47.9368 33.7814 47.6788 33.5842 47.254 33.5842C46.9657 33.5842 46.6471 33.6904 46.4347 33.8875L46.1312 33.5691ZM47.4816 34.6456C46.8899 34.6456 46.5105 34.8123 46.5105 35.1762C46.5105 35.5249 46.7685 35.6614 47.1175 35.6614C47.6485 35.6614 47.9216 35.2823 47.9368 34.8275V34.6456H47.4816Z" fill="#A1A1AA"/>
<path d="M49.2715 31.5078H49.7267V33.6153H49.7419C49.9998 33.3272 50.3336 33.1453 50.7282 33.1453C51.5931 33.1453 52.1848 33.7669 52.1848 34.6008C52.1848 35.4347 51.5779 36.0564 50.804 36.0564C50.3033 36.0564 49.9088 35.8138 49.7419 35.4953H49.7267V35.9805H49.2715V31.5078ZM50.7282 35.6166C51.3199 35.6166 51.7144 35.1618 51.7144 34.5856C51.7144 34.0095 51.3351 33.5547 50.7282 33.5547C50.1364 33.5547 49.7419 34.0095 49.7419 34.5856C49.7419 35.1769 50.1212 35.6166 50.7282 35.6166Z" fill="#A1A1AA"/>
<path d="M53.0215 31.5078H53.4767V35.9805H53.0215V31.5078Z" fill="#A1A1AA"/>
<path d="M56.9209 35.4795C56.6023 35.904 56.2078 36.0556 55.6919 36.0556C54.827 36.0556 54.2959 35.4036 54.2959 34.6001C54.2959 33.7358 54.9028 33.1445 55.7222 33.1445C56.4961 33.1445 57.0423 33.6752 57.0423 34.6001V34.7517H54.8118C54.8422 35.2369 55.2215 35.6311 55.7222 35.6311C56.1167 35.6311 56.3899 35.4946 56.6023 35.2066L56.9209 35.4795ZM56.5264 34.3423C56.5113 33.8723 56.2078 33.5691 55.6919 33.5691C55.176 33.5691 54.8422 33.8875 54.7815 34.3423H56.5264Z" fill="#A1A1AA"/>
<path d="M57.8936 31.7969H58.3943V35.5267H60.3062V35.9815H57.8936V31.7969Z" fill="#A1A1AA"/>
<path d="M60.786 33.5691C61.0743 33.281 61.484 33.1445 61.8937 33.1445C62.713 33.1445 63.0468 33.5388 63.0468 34.312V35.4946C63.0468 35.6614 63.062 35.8282 63.0924 35.9798H62.6524C62.622 35.8585 62.622 35.6917 62.622 35.5704H62.5916C62.4096 35.8585 62.1061 36.0556 61.6813 36.0556C61.1198 36.0556 60.6494 35.7675 60.6494 35.2369C60.6494 34.3271 61.7116 34.2665 62.3944 34.2665H62.5765V34.1907C62.5765 33.7814 62.3185 33.5842 61.8937 33.5842C61.6053 33.5842 61.2867 33.6904 61.0743 33.8875L60.786 33.5691ZM62.1213 34.6456C61.5295 34.6456 61.1502 34.8123 61.1502 35.1762C61.1502 35.5249 61.4081 35.6614 61.7571 35.6614C62.2882 35.6614 62.5613 35.2823 62.5765 34.8275V34.6456H62.1213Z" fill="#A1A1AA"/>
<path d="M63.915 31.5078H64.3702V33.6153H64.3854C64.6434 33.3272 64.9772 33.1453 65.3717 33.1453C66.2366 33.1453 66.8283 33.7669 66.8283 34.6008C66.8283 35.4347 66.2214 36.0564 65.4476 36.0564C64.9468 36.0564 64.5523 35.8138 64.3854 35.4953H64.3702V35.9805H63.915V31.5078ZM65.3565 35.6166C65.9483 35.6166 66.3428 35.1618 66.3428 34.5856C66.3428 34.0095 65.9635 33.5547 65.3565 33.5547C64.7648 33.5547 64.3702 34.0095 64.3702 34.5856C64.3854 35.1769 64.7648 35.6166 65.3565 35.6166Z" fill="#A1A1AA"/>
<path d="M67.665 35.252C67.8471 35.4795 68.0443 35.6311 68.3781 35.6311C68.6664 35.6311 68.9851 35.5098 68.9851 35.2066C68.9851 34.9185 68.6968 34.8275 68.3933 34.7669C67.8623 34.6456 67.4222 34.5394 67.4222 33.9633C67.4222 33.4326 67.9381 33.1445 68.454 33.1445C68.8485 33.1445 69.2124 33.2962 69.395 33.6449L69.0154 33.9026C68.894 33.7055 68.6968 33.5691 68.4237 33.5691C68.1657 33.5691 67.8774 33.6904 67.8774 33.9481C67.8774 34.1756 68.2112 34.2817 68.5754 34.3575C69.061 34.4484 69.486 34.6304 69.486 35.1914C69.486 35.813 68.9244 36.0556 68.3781 36.0556C67.9077 36.0556 67.5739 35.9343 67.3008 35.5401L67.665 35.252Z" fill="#A1A1AA"/>
<path d="M71.1772 31.5977C71.7079 31.5977 72.1483 32.0371 72.1483 32.5674C72.1483 33.0977 71.7079 33.5372 71.1772 33.5372C70.6458 33.5372 70.2061 33.0977 70.2061 32.5674C70.2061 32.0371 70.6307 31.5977 71.1772 31.5977ZM71.1772 33.3705C71.6169 33.3705 71.9814 33.0068 71.9814 32.5674C71.9814 32.128 71.6169 31.7643 71.1772 31.7643C70.7367 31.7643 70.3729 32.128 70.3729 32.5674C70.3729 33.0068 70.7367 33.3705 71.1772 33.3705ZM70.7976 32.0067H71.2223C71.4959 32.0067 71.6169 32.128 71.6169 32.3402C71.6169 32.5371 71.4959 32.628 71.344 32.6432L71.632 33.1129H71.4199L71.1464 32.6583H70.9946V33.1129H70.7976V32.0067ZM71.0103 32.4916H71.1614C71.2832 32.4916 71.4199 32.4765 71.4199 32.3402C71.4199 32.1886 71.2832 32.1886 71.1614 32.1886H71.0103V32.4916Z" fill="#A1A1AA"/>
<path d="M95.8646 23.8047C96.608 23.8047 97.2153 24.4112 97.2153 25.1541C97.2153 25.8971 96.608 26.5035 95.8646 26.5035C95.1213 26.5035 94.5146 25.8971 94.5146 25.1541C94.5146 24.4112 95.1213 23.8047 95.8646 23.8047ZM95.8646 26.2761C96.487 26.2761 96.9725 25.7758 96.9725 25.1693C96.9725 24.5476 96.4719 24.0624 95.8646 24.0624C95.243 24.0624 94.7574 24.5628 94.7574 25.1693C94.7574 25.7758 95.243 26.2761 95.8646 26.2761ZM95.349 24.3808H95.9405C96.3051 24.3808 96.487 24.5476 96.487 24.8509C96.487 25.1238 96.3201 25.2451 96.1231 25.2754L96.5328 25.9273H96.2291L95.8496 25.2906H95.6376V25.9273H95.349V24.3808ZM95.6219 25.048H95.8345C96.0165 25.048 96.1984 25.0328 96.1984 24.8357C96.1984 24.6386 96.0014 24.6234 95.8345 24.6234H95.6219V25.048Z" fill="#A1A1AA"/>
<path d="M1.71757 18.59C2.00587 19.909 2.24865 21.1523 3.14388 22.4714C4.49432 24.4576 6.73999 25.6099 8.84908 25.6099C10.9582 25.6099 14.0839 24.215 14.0839 20.6216C14.0839 19.4087 13.6591 17.8471 12.0204 16.6341C11.0189 15.9215 10.3816 15.7093 7.3621 14.7086C5.43507 14.0718 1.44445 12.7224 1.44445 7.91609C1.44445 3.89825 4.43362 0.759766 8.84908 0.759766C11.1707 0.759766 12.5818 1.5785 13.9019 2.32142L15.3585 1.21462L16.1779 8.5074L15.3585 8.68938C14.9033 6.94576 13.5073 1.95754 8.95529 1.95754C5.89028 1.95754 4.32741 4.04987 4.32741 6.18767C4.32741 7.35513 4.72192 8.53774 5.57164 9.43232C6.60343 10.5391 7.81731 10.9333 10.412 11.752C12.9004 12.5404 17.149 13.8443 17.149 19.1964C17.149 23.8208 13.3405 26.7773 8.77324 26.7773C5.67785 26.7773 4.06946 25.6705 3.03766 25.0034L1.08029 26.2922C1.04994 22.623 1.00442 21.774 0.791992 18.681L1.71757 18.59Z" fill="#A1A1AA"/>
<path d="M44.5638 20.8347C42.1057 24.7919 38.6462 26.8843 33.9575 26.8843C26.9019 26.8843 21.2422 21.8354 21.2422 13.9664C21.2422 5.70326 27.2964 0.59375 33.9879 0.59375C38.1606 0.59375 40.649 2.41316 42.1057 3.50481L43.9265 1.97347L44.0328 9.41786L43.2892 9.49371C42.8947 8.25041 42.5457 7.14365 41.5746 5.76391C39.7235 2.98931 37.1288 1.80669 34.5645 1.80669C30.1794 1.80669 25.5515 5.2939 25.5515 12.5867C25.5515 18.8181 29.0414 25.08 35.4142 25.08C40.118 25.08 42.3181 21.9111 43.532 20.1979L44.5638 20.8347Z" fill="#A1A1AA"/>
<path d="M46.1338 7.91551C47.2415 4.92865 47.4843 4.18572 48.3795 1.12305H69.0761C70.0016 4.29185 70.2444 5.00445 71.3215 7.91551L70.533 8.26422C69.1823 6.44482 66.9367 3.45796 65.9048 2.85149C64.9489 2.32082 64.1903 2.32082 60.5334 2.35115V19.9691C60.5334 21.2123 60.5638 23.1076 60.7459 23.7444C61.0645 24.7754 61.8535 24.9118 64.5241 25.1392V26.2764C62.597 26.2461 60.7155 26.1703 58.7885 26.1703C56.8311 26.1703 54.8737 26.2461 52.9163 26.2764V25.1392C56.4821 25.0635 56.649 24.3964 56.8008 23.6383C56.9828 22.8195 57.0132 21.1062 57.0132 19.9691V2.36631H54.024C52.7343 2.39663 51.8846 2.44212 50.7769 3.47312C50.2458 3.92797 50.1396 4.10991 46.938 8.27939L46.1338 7.91551Z" fill="#A1A1AA"/>
<path d="M73.0498 1.1543H91.531C92.6991 3.95922 93.0328 4.71731 94.3076 7.3403L93.6251 7.84065C90.7418 4.6415 90.7418 4.6415 90.1044 4.06536C88.5719 2.64015 87.4038 2.35207 83.2615 2.29143H79.5891V12.5104H83.1097C86.4628 12.5408 87.0701 11.9798 87.8894 8.31066H88.8146C88.7387 9.97846 88.7086 11.6917 88.7086 13.405C88.7086 15.0425 88.7387 16.6799 88.8146 18.2871H87.8894C87.0701 14.2237 86.2809 14.0115 82.3356 14.0115H79.5891V20.061C79.6199 24.9431 79.6199 25.0796 84.5055 25.1553H86.3869C89.346 25.125 89.9526 25.125 94.2925 19.1058L95.0817 19.5303C94.0798 22.5475 93.8678 23.3056 93.0479 26.2925H73.0498V25.1553C75.7505 24.9431 75.9023 24.2608 75.9324 22.6233C76.0083 20.9101 76.0391 19.2119 76.0391 15.6489V8.96258C76.0391 7.85582 76.0391 4.23213 75.7505 3.54986C75.4318 2.62498 74.7493 2.51885 73.0498 2.30659V1.1543Z" fill="#A1A1AA"/>
</g>
<defs>
<clipPath id="clip0_1225_1201">
<rect width="96.4274" height="37.5845" fill="white" transform="translate(0.791992 0.207031)"/>
</clipPath>
</defs>
</svg>
