<svg width="89" height="28" viewBox="0 0 89 28" fill="none" xmlns="http://www.w3.org/2000/svg">
<path fill-rule="evenodd" clip-rule="evenodd" d="M47.8329 7.06644H41.5717L39.6496 10.6323L37.8366 7.06644H31.4937L36.2447 13.8715L31.0818 21.3298H37.3987L39.4848 17.2467L41.5167 21.3298H47.8871L42.9171 13.8442L47.8329 7.06644ZM22.6521 10.7684C22.6521 10.0607 23.2837 9.7613 24.2722 9.7613C24.7108 9.7613 25.1234 9.87018 25.4247 10.1145C25.7275 10.3608 25.9197 10.6868 25.9746 11.1495H31.1649C30.8354 7.36593 27.1553 6.65753 24.0251 6.65753C21.0314 6.65753 17.2147 7.71979 17.2147 11.368C17.2147 16.893 26.0295 15.0692 26.0295 17.3564C26.0295 18.3649 25.0952 18.6357 24.2173 18.6357C23.6681 18.6357 23.1738 18.4724 22.8162 18.2002C22.4318 17.9008 22.2121 17.4646 22.2121 16.893H16.7753C17.0774 20.731 20.7019 21.7388 23.9969 21.7388C29.2696 21.7388 31.7416 19.7252 31.7416 16.7569C31.7416 11.4217 22.6521 12.7555 22.6521 10.7684V10.7684ZM72.069 5.72117V5.713C72.069 5.55575 71.9528 5.4693 71.757 5.4693H71.3647V5.96488H71.757C71.9528 5.96488 72.069 5.86957 72.069 5.72117V5.72117ZM72.0087 6.1749L72.4336 6.7649H72.0753L71.6923 6.22458H71.684H71.3628V6.7649H71.0635V5.2011H71.7671C71.9751 5.2011 72.1371 5.26371 72.2456 5.37055C72.3293 5.44881 72.3753 5.56041 72.3753 5.69651V5.70468C72.3753 5.95646 72.225 6.11366 72.0087 6.1749V6.1749ZM66.4724 6.66092C64.3904 6.66092 63.3071 7.55646 62.0715 9.27132C61.3844 7.74632 59.9435 6.65955 57.5621 6.65955C55.5028 6.65955 54.204 8.10154 53.49 9.18898V7.06649H48.2441V21.3298H53.9555V14.2805C53.9555 12.5656 53.996 11.0842 55.5645 11.1236C57.0864 11.1638 57.2107 11.9661 57.2107 14.0627V21.3298H62.9227V14.2805C62.9227 12.5656 62.911 11.1311 64.516 11.1264C66.0262 11.123 66.1642 11.9661 66.1642 14.0627V21.3298H71.8749V12.8923C71.8749 8.99912 70.0935 6.65955 66.4724 6.66092V6.66092ZM72.9925 6.01784C72.9925 5.2829 72.4131 4.70651 71.6738 4.70651C70.929 4.70651 70.3462 5.2863 70.3462 6.02669V6.03485C70.3462 6.7698 70.9255 7.34618 71.6655 7.34618C72.4097 7.34618 72.9925 6.76707 72.9925 6.02669V6.01784ZM73.2015 6.01785V6.02669C73.2015 6.86371 72.513 7.54557 71.6659 7.54557C70.8229 7.54557 70.1378 6.86779 70.1378 6.03486V6.02669C70.1378 5.18899 70.827 4.50781 71.6741 4.50781C72.5164 4.50781 73.2015 5.18491 73.2015 6.01785V6.01785Z" fill="#A1A1AA"/>
<mask id="mask0_1225_1123" style="mask-type:alpha" maskUnits="userSpaceOnUse" x="82" y="1" width="7" height="27">
<path fill-rule="evenodd" clip-rule="evenodd" d="M82.8389 1.17773H88.9303V27.0389H82.8389V1.17773Z" fill="white"/>
</mask>
<g mask="url(#mask0_1225_1123)">
<path fill-rule="evenodd" clip-rule="evenodd" d="M85.1194 1.71854C84.7335 1.15236 83.9609 1.00687 83.395 1.39599C82.8304 1.78305 82.686 2.55993 83.074 3.12611C85.283 6.36331 86.4511 10.1557 86.4511 14.0957C86.4511 18.0459 85.2761 21.8479 83.0576 25.0885C82.6689 25.6554 82.8119 26.4295 83.3779 26.818C83.9404 27.2112 84.7143 27.0664 85.1023 26.4989C87.6062 22.8403 88.9304 18.5517 88.9304 14.0957C88.9304 9.65198 87.6131 5.37163 85.1194 1.71854" fill="#A1A1AA"/>
</g>
<path fill-rule="evenodd" clip-rule="evenodd" d="M7.47731 14.1665C7.47731 11.3786 8.32345 8.73542 9.92539 6.52134C10.3244 5.96903 10.2241 5.18348 9.6972 4.76198C9.17158 4.34532 8.42106 4.45122 8.0214 5.00422C6.10158 7.65641 5.08594 10.8249 5.08594 14.1665C5.08594 17.4782 6.08443 20.6253 7.97523 23.265C8.3716 23.818 9.12146 23.9308 9.64972 23.5149C10.1773 23.0982 10.2848 22.3113 9.88714 21.7583C8.31158 19.5553 7.47731 16.9301 7.47731 14.1665" fill="#A1A1AA"/>
<path fill-rule="evenodd" clip-rule="evenodd" d="M12.7778 14.093C12.7778 12.4391 13.3354 10.8781 14.3915 9.57946C14.8347 9.03371 14.7332 8.24347 14.1677 7.81684C13.5987 7.38813 12.78 7.4837 12.3354 8.03223C10.9159 9.77754 10.167 11.8719 10.167 14.093C10.167 16.3294 10.9677 18.5173 12.4203 20.2557C12.8721 20.7966 13.6951 20.8831 14.2555 20.4489C14.816 20.0139 14.9066 19.2237 14.4526 18.6814C13.357 17.369 12.7778 15.7816 12.7778 14.093" fill="#A1A1AA"/>
<path fill-rule="evenodd" clip-rule="evenodd" d="M74.7963 7.81684C74.2279 8.24347 74.1257 9.03371 74.5718 9.57946C75.628 10.8781 76.1857 12.4391 76.1857 14.093C76.1857 15.7816 75.6057 17.369 74.5092 18.6814C74.0552 19.2237 74.1473 20.0139 74.7071 20.4489C75.2697 20.8831 76.0914 20.7966 76.5433 20.2557C77.9952 18.5173 78.7953 16.3287 78.7953 14.093C78.7953 11.8719 78.0463 9.77685 76.6289 8.03223C76.1828 7.4837 75.3625 7.38813 74.7963 7.81684" fill="#A1A1AA"/>
<path fill-rule="evenodd" clip-rule="evenodd" d="M2.48635 13.8713C2.48635 9.93426 3.65423 6.1426 5.86607 2.90857C6.25285 2.34133 6.10841 1.56626 5.54159 1.17941C4.9775 0.789819 4.20394 0.935916 3.81647 1.5011C1.31916 5.15284 0 9.42944 0 13.8713C0 18.3256 1.32601 22.6118 3.83496 26.2683C4.22242 26.8342 4.99667 26.9782 5.56144 26.5873C6.12689 26.1984 6.26997 25.4254 5.88182 24.8581C3.65834 21.6193 2.48635 17.8187 2.48635 13.8713" fill="#A1A1AA"/>
<path fill-rule="evenodd" clip-rule="evenodd" d="M80.9436 5.00485C80.5446 4.45117 79.7942 4.34528 79.268 4.76192C78.7418 5.1841 78.6383 5.96962 79.0372 6.52191C80.6409 8.73592 81.4862 11.3783 81.4862 14.1668C81.4862 16.9303 80.6554 19.5554 79.0775 21.7584C78.6805 22.3106 78.786 23.0983 79.3142 23.5149C79.8424 23.9308 80.5921 23.818 80.9897 23.265C82.8796 20.6247 83.8779 17.4778 83.8779 14.1668C83.8779 10.8254 82.8644 7.65695 80.9436 5.00485" fill="#A1A1AA"/>
</svg>
