<svg width="160" height="26" viewBox="0 0 160 26" fill="none" xmlns="http://www.w3.org/2000/svg">
<g clip-path="url(#clip0_1225_1154)">
<path fill-rule="evenodd" clip-rule="evenodd" d="M20.246 24.4468C18.1856 23.1291 16.6196 18.6821 16.6196 13.3291C16.6196 13.1644 16.6196 12.9174 16.6196 12.7527C10.8505 11.8468 6.72966 9.37619 6.56483 6.41149C5.16375 8.1409 4.33958 10.1997 4.33958 12.3409C4.422 18.7644 11.4274 23.9527 20.246 24.4468ZM1.78467 12.9174C1.78467 5.83502 10.6032 0.0703125 21.5646 0.0703125C32.4436 0.0703125 41.3446 5.83502 41.3446 12.9174C41.3446 19.9997 32.526 25.7644 21.5646 25.7644C10.6032 25.7644 1.78467 19.9997 1.78467 12.9174ZM21.4822 1.88207C23.6251 1.88207 25.3558 5.09384 26.0151 9.5409C30.136 8.88208 33.0205 7.39972 33.0205 5.75266C33.0205 3.44678 27.8283 1.63501 21.4822 1.63501C15.1361 1.63501 9.94391 3.52913 9.94391 5.75266C9.94391 7.48207 12.8285 8.96443 16.9493 9.5409C17.6086 5.09384 19.4218 1.88207 21.4822 1.88207ZM22.8009 24.4468C31.6195 23.9527 38.6249 18.7644 38.6249 12.4233C38.6249 10.2821 37.8007 8.22325 36.3996 6.49384C36.3172 9.45855 32.114 11.9291 26.3448 12.835C26.3448 12.9997 26.3448 13.2468 26.3448 13.4115C26.3448 18.6821 24.8613 23.1291 22.8009 24.4468ZM21.4822 9.87031C22.3888 9.87031 23.3778 9.87031 24.202 9.78796C23.7899 6.9056 22.7185 4.92913 21.4822 4.92913C20.246 4.92913 19.1746 6.9056 18.7625 9.78796C19.6691 9.87031 20.5756 9.87031 21.4822 9.87031ZM21.4822 20.4115C23.0481 20.4115 24.3668 17.1174 24.4492 12.9997C23.4602 13.0821 22.4712 13.1644 21.4822 13.1644C20.4932 13.1644 19.5042 13.0821 18.5152 12.9997C18.5976 17.1174 19.9163 20.4115 21.4822 20.4115Z" fill="#A1A1AA"/>
<path fill-rule="evenodd" clip-rule="evenodd" d="M102.581 12.9172C102.581 7.48189 106.949 3.11719 112.388 3.11719C117.828 3.11719 122.196 7.48189 122.196 12.9172C122.196 18.3525 117.828 22.7172 112.388 22.7172C107.031 22.7172 102.581 18.3525 102.581 12.9172ZM112.471 19.0937C115.52 19.0937 117.992 16.2937 117.992 12.8348C117.992 9.37601 115.52 6.57601 112.471 6.57601C109.421 6.57601 106.949 9.37601 106.949 12.8348C106.949 16.376 109.421 19.0937 112.471 19.0937Z" fill="#A1A1AA"/>
<path fill-rule="evenodd" clip-rule="evenodd" d="M133.41 7.15186V22.3048H129.289V7.15186H123.52V3.77539H139.262V7.15186H133.492H133.41Z" fill="#A1A1AA"/>
<path fill-rule="evenodd" clip-rule="evenodd" d="M144.278 18.1048L142.712 22.3048H137.849L145.514 3.77539H148.069H150.624L158.288 22.3048H153.426L151.86 18.1048H148.069H144.278ZM148.069 14.9754H150.706L148.151 8.22244L145.596 14.9754H148.069Z" fill="#A1A1AA"/>
<path fill-rule="evenodd" clip-rule="evenodd" d="M57.0047 7.15186V22.3048H52.8839V7.15186H47.1147V3.77539H62.7739V7.15186H57.0047Z" fill="#A1A1AA"/>
<path fill-rule="evenodd" clip-rule="evenodd" d="M63.8442 12.9172C63.8442 7.48189 68.2123 3.11719 73.6518 3.11719C79.0913 3.11719 83.4594 7.48189 83.4594 12.9172C83.4594 18.3525 79.0913 22.7172 73.6518 22.7172C68.2947 22.7172 63.8442 18.3525 63.8442 12.9172ZM73.7342 19.0937C76.7836 19.0937 79.2561 16.2937 79.2561 12.8348C79.2561 9.37601 76.7836 6.57601 73.7342 6.57601C70.6848 6.57601 68.2123 9.37601 68.2123 12.8348C68.2123 16.376 70.6848 19.0937 73.7342 19.0937Z" fill="#A1A1AA"/>
<path fill-rule="evenodd" clip-rule="evenodd" d="M93.102 22.3048H95.1624V15.3048V15.2224L102.415 3.77539H97.5525L93.102 11.5166L88.5691 3.77539H83.7065L90.9592 15.2224V15.3048V22.3048H93.102Z" fill="#A1A1AA"/>
</g>
<defs>
<clipPath id="clip0_1225_1154">
<rect width="159.064" height="25.5294" fill="white" transform="translate(0.455566 0.234375)"/>
</clipPath>
</defs>
</svg>
